<svg width="439" height="398" viewBox="0 0 439 398" fill="none" xmlns="http://www.w3.org/2000/svg">
<mask id="mask0" mask-type="alpha" maskUnits="userSpaceOnUse" x="0" y="0" width="439" height="398">
<rect x="0.599915" width="437.8" height="398" fill="#C4C4C4"/>
</mask>
<g mask="url(#mask0)">
<path d="M375.586 116.982C369.567 111.804 362.585 109.733 356.094 109.997C351.489 100.79 342.036 95.386 332.035 97.2124C317.694 99.8295 313.335 117.02 323.279 123.29C326.695 125.455 330.205 126.98 333.884 128.11C333.865 128.261 333.846 128.411 333.827 128.562C321.921 133.156 313.429 143.512 312.543 156.409C311.071 177.742 334.016 190.188 346.602 178.326C348.376 176.65 349.98 174.937 351.489 173.148C353.905 176.537 356.509 180.001 359.32 183.617C390.512 169.288 395.795 134.361 375.586 116.982Z" fill="#122757"/>
<path d="M312.863 199.847C312.675 202.483 312.448 204.761 312.109 207.19C311.807 209.563 311.429 211.935 311.052 214.289C310.259 218.996 309.203 223.665 308.052 228.316C305.731 237.617 302.617 246.768 298.466 255.598L298.088 256.427C297.937 256.747 297.9 256.86 297.617 257.425C297.145 258.347 296.579 259.251 295.937 260.061C294.654 261.68 293.145 262.979 291.616 263.921C288.54 265.803 285.559 266.613 282.766 267.14C277.2 268.119 272.143 267.837 267.237 267.366C257.443 266.18 248.31 263.902 239.253 260.626L241.329 253.094C245.687 253.753 250.235 254.356 254.688 254.77C259.141 255.222 263.576 255.485 267.897 255.429C272.18 255.448 276.445 255.071 279.936 254.149C281.653 253.678 283.125 253.019 283.917 252.36C284.332 252.04 284.54 251.776 284.653 251.55C284.71 251.437 284.748 251.343 284.785 251.23L285.295 249.893C286.087 247.879 286.861 245.845 287.54 243.755C288.295 241.703 288.899 239.594 289.559 237.504C290.748 233.268 291.918 229.031 292.88 224.701C293.862 220.389 294.654 216.021 295.371 211.653C296.107 207.341 296.692 202.784 297.126 198.698L312.863 199.847Z" fill="#FFBA98"/>
<path d="M302.107 180.981C295.748 182.6 291.295 208.753 291.295 208.753L308.844 220.653C308.844 220.653 325.676 194.274 320.77 187.288C315.656 180.021 311.41 178.627 302.107 180.981Z" fill="#F4C54C"/>
<path opacity="0.2" d="M302.693 186.818L297.805 213.178L307.655 219.843L302.693 186.818Z" fill="black"/>
<path d="M234.762 253.339L222.855 257.971L236.309 266.067C236.309 266.067 244.895 261.115 244.687 254.713L243.366 253.96C240.725 252.473 237.573 252.247 234.762 253.339Z" fill="#FFBA98"/>
<path opacity="0.1" d="M233.875 253.904C233.875 253.904 230.365 255.109 227.969 255.937C225.912 256.653 224.591 257.293 224.591 257.293C224.591 257.293 228.478 258.912 230.422 257.82C233.045 258.422 239.253 257.293 239.253 257.293L233.875 253.904Z" fill="black"/>
<path d="M215.439 266.726L225.553 275.143L236.29 266.067L222.836 257.952L215.439 266.726Z" fill="#FFBA98"/>
<path d="M302.108 180.98C302.108 180.98 294.748 183.56 309.486 274.012C334.375 274.012 360.113 274.012 372.227 274.012C371.171 248.537 371.152 232.815 383.342 180.528C383.342 180.528 370.189 177.666 356.698 177.026C346.131 176.518 337.488 176.179 328.204 177.026C315.996 178.137 302.108 180.98 302.108 180.98Z" fill="#F4C54C"/>
<path d="M345.319 205.797C337.451 205.797 331.054 201.41 330.771 201.203C330.563 201.052 330.507 200.769 330.657 200.544C330.808 200.336 331.091 200.28 331.318 200.431C331.393 200.487 338.658 205.458 346.942 204.78C348.999 203.481 363.226 194.01 364.302 177.629C364.321 177.366 364.566 177.177 364.812 177.196C365.076 177.215 365.264 177.441 365.246 177.704C364.151 194.481 350.131 203.933 347.338 205.665C347.282 205.703 347.206 205.721 347.131 205.74C346.527 205.759 345.923 205.797 345.319 205.797Z" fill="white"/>
<path d="M318.638 202.898C318.543 202.898 318.468 202.879 318.392 202.822C317.222 202.088 316.449 200.582 316.09 198.322C315.203 192.58 317.336 182.544 321.827 177.347C321.996 177.159 322.298 177.121 322.487 177.291C322.676 177.46 322.713 177.762 322.544 177.95C318.355 182.808 316.166 192.636 317.034 198.172C317.317 200.036 317.921 201.335 318.789 201.937C321.279 201.862 326.355 199.584 326.393 199.546C326.619 199.433 326.902 199.546 327.016 199.772C327.129 200.017 327.016 200.28 326.789 200.393C326.544 200.525 321.279 202.898 318.638 202.898Z" fill="white"/>
<path d="M353.905 145.019C352.112 154.169 350.32 170.927 356.735 177.027C356.735 177.027 354.226 186.31 337.186 186.31C318.449 186.31 328.242 177.027 328.242 177.027C338.469 174.598 338.205 167.029 336.413 159.912L353.905 145.019Z" fill="#FFBA98"/>
<path d="M356.716 177.045C346.149 176.518 337.507 176.198 328.223 177.045C327.6 177.102 326.978 177.158 326.374 177.234C324.091 181.545 323.525 188.154 328.978 197.851C328.978 197.851 353.98 187.815 360.471 177.29C359.226 177.177 357.962 177.102 356.716 177.045Z" fill="#FFBA98"/>
<path opacity="0.2" d="M346.772 151.1L336.413 159.912C336.847 161.588 337.168 163.301 337.3 164.958C341.206 164.393 346.565 160.119 346.98 156.033C347.187 154 347.093 152.042 346.772 151.1Z" fill="black"/>
<path d="M363.774 129.165C360.283 144.058 359.113 150.441 350.188 156.88C336.734 166.558 319.166 159.008 318.128 143.38C317.203 129.296 323.072 107.305 338.866 103.821C354.414 100.395 367.284 114.271 363.774 129.165Z" fill="#FFBA98"/>
<path d="M309.504 274.012C309.504 274.012 297.315 392.764 298.334 439.779C299.39 488.676 317.335 600.198 317.335 600.198H338.224C338.224 600.198 334.922 491.538 336.771 443.507C338.79 391.163 355.452 274.012 355.452 274.012H309.504Z" fill="#194C80"/>
<path opacity="0.3" d="M309.504 274.012C309.504 274.012 297.315 392.764 298.334 439.779C299.39 488.676 317.335 600.198 317.335 600.198H338.224C338.224 600.198 334.922 491.538 336.771 443.507C338.79 391.163 355.452 274.012 355.452 274.012H309.504Z" fill="white"/>
<path opacity="0.2" d="M336.564 303.573C321.147 334.508 333.469 390.937 338.922 411.931C341.715 380.393 346.433 341.851 350.093 313.552C347.753 297.529 343.659 289.301 336.564 303.573Z" fill="black"/>
<path d="M326.846 274.012C326.846 274.012 339.828 392.764 346.942 439.779C354.358 488.676 386.814 600.198 386.814 600.198H407.702C407.702 600.198 390.267 491.538 385.87 443.507C381.077 391.163 372.793 274.012 372.793 274.012H326.846Z" fill="#194C80"/>
<path opacity="0.3" d="M326.846 274.012C326.846 274.012 339.828 392.764 346.942 439.779C354.358 488.676 386.814 600.198 386.814 600.198H407.702C407.702 600.198 390.267 491.538 385.87 443.507C381.077 391.163 372.793 274.012 372.793 274.012H326.846Z" fill="white"/>
<path d="M339.036 129.071C338.828 130.294 337.998 131.179 337.205 131.048C336.394 130.916 335.922 129.805 336.13 128.581C336.337 127.357 337.168 126.472 337.96 126.604C338.771 126.755 339.243 127.847 339.036 129.071Z" fill="#122757"/>
<path d="M325.147 126.717C324.94 127.94 324.11 128.825 323.317 128.694C322.506 128.562 322.034 127.451 322.242 126.227C322.449 125.003 323.279 124.118 324.072 124.25C324.883 124.382 325.374 125.493 325.147 126.717Z" fill="#122757"/>
<path d="M324.431 124.382L321.619 123.026C321.619 123.026 322.732 125.587 324.431 124.382Z" fill="#122757"/>
<path d="M329.053 129.654C329.053 129.654 326.072 134.569 323.336 136.734C324.694 138.523 327.582 138.297 327.582 138.297L329.053 129.654Z" fill="#ED893E"/>
<path d="M333.469 144.227C332.884 144.227 332.28 144.17 331.639 144.057C331.431 144.02 331.299 143.832 331.337 143.643C331.374 143.436 331.582 143.304 331.752 143.342C337.167 144.265 340.3 140.932 340.338 140.894C340.47 140.744 340.696 140.744 340.847 140.875C340.998 141.007 340.998 141.252 340.866 141.384C340.753 141.534 338.111 144.302 333.469 144.227Z" fill="#122757"/>
<path d="M371.057 105.968C369.208 104.668 367.189 103.859 365.151 103.445C363.434 88.7582 351.641 79.4193 338.507 82.3754C323.6 85.7268 318.392 104.179 328.431 110.468C334.413 114.214 340.696 116.003 347.867 116.775C348.112 128.957 355.735 139.388 361.075 139.934C376.322 133.871 380.266 112.426 371.057 105.968Z" fill="#122757"/>
<path d="M365.51 143.663C363.944 146.412 361.227 148.201 358.698 148.841C354.886 149.82 353.075 146.393 354.207 142.853C355.226 139.671 358.434 135.322 362.208 135.906C365.944 136.508 367.321 140.519 365.51 143.663Z" fill="#FFBA98"/>
<path d="M345.093 127.207C344.791 127.207 344.508 126.999 344.414 126.698C343.414 123.479 339.281 122.085 339.243 122.085C338.866 121.953 338.658 121.539 338.772 121.163C338.904 120.786 339.3 120.56 339.696 120.692C339.904 120.748 344.602 122.33 345.81 126.265C345.923 126.642 345.716 127.056 345.319 127.169C345.244 127.188 345.168 127.207 345.093 127.207Z" fill="#122757"/>
<path d="M322.072 119.618C321.827 119.618 321.581 119.486 321.449 119.26C321.242 118.903 321.374 118.47 321.713 118.262C325.223 116.248 328.261 117.754 328.374 117.811C328.733 117.999 328.884 118.432 328.695 118.79C328.506 119.147 328.072 119.298 327.714 119.11C327.619 119.053 325.242 117.924 322.449 119.524C322.336 119.58 322.204 119.618 322.072 119.618Z" fill="#122757"/>
<path d="M390.587 198.491C392.399 207.359 393.72 216.077 394.777 224.983C395.871 233.851 396.569 242.814 396.701 251.927C396.72 252.378 396.701 253.32 396.682 254.148C396.626 254.92 396.55 255.655 396.456 256.351C396.248 257.726 395.984 258.987 395.682 260.192C395.078 262.602 394.361 264.862 393.588 267.046C392.078 271.433 390.304 275.594 388.493 279.699C384.738 287.87 380.756 295.778 376.209 303.517L369.114 300.222L373.322 287.833C374.737 283.728 376.096 279.586 377.36 275.462C378.662 271.358 379.851 267.234 380.907 263.224C381.417 261.209 381.851 259.213 382.153 257.33C382.304 256.389 382.417 255.504 382.492 254.676C382.511 254.28 382.53 253.922 382.53 253.602L382.455 252.529C382.115 248.312 381.606 244.075 381.115 239.82L379.341 227.016C378.039 218.506 376.586 209.882 375.114 201.466L390.587 198.491Z" fill="#FFBA98"/>
<path d="M383.36 180.529C389.644 182.43 397.192 204.027 397.192 204.027L372.812 221.424C372.812 221.424 363.925 203.387 366.567 195.29C369.303 186.855 376.19 178.363 383.36 180.529Z" fill="#F4C54C"/>
<path d="M338.299 126.735L335.488 125.379C335.507 125.398 336.62 127.94 338.299 126.735Z" fill="#122757"/>
<path d="M373.171 270.341L374.775 275.951C375.001 276.385 374.473 276.836 373.756 276.836H309.184C308.618 276.836 308.146 276.554 308.108 276.196L307.542 270.585C307.504 270.19 307.995 269.87 308.618 269.87H372.152C372.624 269.87 373.039 270.058 373.171 270.341Z" fill="#194C80"/>
<path d="M364.641 277.439H366.34C366.679 277.439 366.943 277.269 366.906 277.043L366.113 269.756C366.094 269.549 365.792 269.361 365.453 269.361H363.755C363.415 269.361 363.151 269.531 363.188 269.756L363.981 277.043C364.019 277.269 364.302 277.439 364.641 277.439Z" fill="#194C80"/>
<g opacity="0.3">
<path opacity="0.3" d="M364.641 277.439H366.34C366.679 277.439 366.943 277.269 366.906 277.043L366.113 269.756C366.094 269.549 365.792 269.361 365.453 269.361H363.755C363.415 269.361 363.151 269.531 363.188 269.756L363.981 277.043C364.019 277.269 364.302 277.439 364.641 277.439Z" fill="white"/>
</g>
<path d="M313.977 277.439H315.675C316.015 277.439 316.279 277.269 316.241 277.043L315.448 269.756C315.43 269.549 315.128 269.361 314.788 269.361H313.09C312.75 269.361 312.486 269.531 312.524 269.756L313.316 277.043C313.335 277.269 313.637 277.439 313.977 277.439Z" fill="#194C80"/>
<path opacity="0.3" d="M313.977 277.439H315.675C316.015 277.439 316.279 277.269 316.241 277.043L315.448 269.756C315.43 269.549 315.128 269.361 314.788 269.361H313.09C312.75 269.361 312.486 269.531 312.524 269.756L313.316 277.043C313.335 277.269 313.637 277.439 313.977 277.439Z" fill="white"/>
<path d="M339.3 277.439H340.998C341.338 277.439 341.602 277.269 341.564 277.043L340.772 269.756C340.753 269.549 340.451 269.361 340.111 269.361H338.413C338.073 269.361 337.809 269.531 337.847 269.756L338.639 277.043C338.677 277.269 338.96 277.439 339.3 277.439Z" fill="#194C80"/>
<path opacity="0.3" d="M339.3 277.439H340.998C341.338 277.439 341.602 277.269 341.564 277.043L340.772 269.756C340.753 269.549 340.451 269.361 340.111 269.361H338.413C338.073 269.361 337.809 269.531 337.847 269.756L338.639 277.043C338.677 277.269 338.96 277.439 339.3 277.439Z" fill="white"/>
<path d="M369.34 298.734L357.358 310.332L372.982 311.895C372.982 311.895 378.605 303.742 375.661 298.056L369.34 298.734Z" fill="#FFBA98"/>
<path d="M355.603 323.173L368.755 323.776L373.001 311.914L357.358 310.332L355.603 323.173Z" fill="#FFBA98"/>
<path d="M51.8209 277.57L60.8972 287.078L46.2544 292.181C46.2544 292.181 40.9332 284.423 45.0279 279.114L51.8209 277.57Z" fill="#FFBA98"/>
<path d="M63.6144 300.372L49.1225 302.481L46.2543 292.182L60.8783 287.079L63.6144 300.372Z" fill="#FFBA98"/>
<path d="M73.1061 172.244C72.1815 174.052 71.087 176.273 70.1058 178.326C69.1057 180.416 68.1245 182.543 67.181 184.69C65.2752 188.964 63.4448 193.257 61.7843 197.568C60.1426 201.899 58.6519 206.229 57.3122 210.541C56.6895 212.688 56.0668 214.853 55.5762 216.981C55.2931 218.054 55.0478 219.127 54.878 220.163L54.5572 221.744C54.444 222.271 54.3308 222.836 54.3119 223.194C54.2176 224.022 54.0666 224.776 54.0477 225.886C53.9911 226.922 53.8968 227.92 53.8968 229.069C53.8213 231.253 53.859 233.587 53.8779 235.903C53.9911 240.592 54.2553 245.374 54.5384 250.175C55.1044 259.778 55.897 269.569 56.6518 279.19L39.3483 281.977C37.0273 272.167 35.1781 262.452 33.4987 252.491C32.7062 247.52 32.0269 242.493 31.4608 237.372C31.2155 234.774 30.9513 232.194 30.8003 229.464C30.6871 228.146 30.6682 226.696 30.6682 225.265C30.6116 223.909 30.7248 222.215 30.8381 220.596C30.8758 219.73 30.9702 219.071 31.0645 218.393L31.3287 216.322C31.4796 214.928 31.6872 213.573 31.9514 212.255C32.3854 209.543 32.9515 206.926 33.5364 204.309C34.7441 199.112 36.1593 194.029 37.8198 189.096C39.4804 184.144 41.2352 179.267 43.1788 174.485C44.16 172.093 45.179 169.721 46.2357 167.349C47.2924 164.938 48.3491 162.717 49.6511 160.137L73.1061 172.244Z" fill="#F13B61"/>
<path d="M110.902 270.811C110.902 270.811 97.561 374.236 89.8433 416.412C81.8049 460.283 53.2551 603.944 53.2551 603.944H29.7812C29.7812 603.944 41.7257 462.843 47.047 419.764C52.8399 372.786 62.1804 270.811 62.1804 270.811H110.902Z" fill="#143B63"/>
<path d="M122.28 99.0754C122.28 100.243 122.903 101.203 123.677 101.203C124.45 101.203 125.073 100.262 125.073 99.0754C125.073 97.908 124.45 96.9478 123.677 96.9478C122.903 96.9478 122.28 97.8892 122.28 99.0754Z" fill="#122757"/>
<path d="M122.79 101.184C122.79 101.184 125.45 107.944 128.394 111.201C126.318 113.14 122.79 112.255 122.79 112.255V101.184Z" fill="#A02724"/>
<path d="M118.11 92.5802C118.242 92.5802 118.393 92.5426 118.506 92.4484C120.997 90.6597 123.375 91.5446 123.412 91.5446C123.771 91.6764 124.167 91.507 124.299 91.1492C124.431 90.7915 124.261 90.3961 123.903 90.2643C123.771 90.2078 120.789 89.0969 117.695 91.3375C117.393 91.5635 117.317 91.9965 117.544 92.2978C117.695 92.4861 117.902 92.5802 118.11 92.5802Z" fill="#122757"/>
<path d="M85.1069 112.011C87.0882 122.122 89.0884 140.668 81.9934 147.427C81.9934 147.427 84.7673 157.689 103.618 157.689C124.337 157.689 113.525 147.427 113.525 147.427C102.222 144.735 102.505 136.356 104.486 128.505L85.1069 112.011Z" fill="#FFBA98"/>
<path d="M79.2762 150.948C77.7855 147.691 76.1627 143.982 79.5404 142.814C83.2577 141.534 103.637 140.216 110.656 142.626C117.676 145.036 115.695 151.626 115.695 151.626L79.2762 150.948Z" fill="#122757"/>
<path d="M54.6892 151.4C42.556 156.898 34.9893 198.584 34.9893 198.584L58.7839 206.116C58.7839 206.116 66.294 188.794 70.4265 172.206C74.7476 154.808 67.1054 145.77 54.6892 151.4Z" fill="#F13B61"/>
<path d="M202.344 254.619L216.968 254.656L214.402 272.148C214.402 272.148 202.929 271.734 197.74 263.091L202.344 254.619Z" fill="#FFBA98"/>
<path d="M230.837 260.681L223.478 274.181L214.402 272.129L216.968 254.637L230.837 260.681Z" fill="#FFBA98"/>
<path d="M83.1258 96.5905C84.0127 110.976 83.8051 119.448 91.0699 126.829C102.014 137.938 119.827 131.348 123.262 116.982C126.356 104.047 124.394 82.6951 110.279 76.9712C96.3723 71.3415 82.2389 82.2055 83.1258 96.5905Z" fill="#FFBA98"/>
<path d="M81.4651 116.153C81.4651 116.153 68.3884 96.6093 71.2377 83.8624C73.8418 72.1887 100.184 68.0464 111.128 69.2138C122.733 70.4565 127.281 75.4649 120.903 85.5005C114.336 88.5507 109.109 89.4922 109.109 89.4922C109.109 89.4922 115.6 97.419 115.638 102.616C113.827 103.614 107.939 105.929 107.939 105.929C107.939 105.929 99.6743 126.264 99.429 126.245C96.24 125.869 88.862 125.756 86.2391 126.754C83.7106 122.63 81.4651 116.153 81.4651 116.153Z" fill="#122757"/>
<path d="M102.184 103.895C103.128 107.51 105.543 110.655 108.034 112.537C111.808 115.362 114.619 112.688 114.336 108.452C114.091 104.648 111.826 98.6044 107.675 97.4182C103.599 96.232 101.108 99.7529 102.184 103.895Z" fill="#FFBA98"/>
<path opacity="0.3" d="M100.92 309.466C82.3521 313.759 85.8618 380.713 89.3905 418.879C89.5414 418.013 89.6924 417.203 89.8433 416.412C94.4475 391.295 101.033 344.487 105.618 310.709C104.09 310.012 102.09 309.184 100.92 309.466Z" fill="black"/>
<path d="M135.659 270.811C135.659 270.811 137.565 374.236 136.055 416.412C134.489 460.283 119.129 603.944 119.129 603.944H95.6361C95.6361 603.944 94.7681 462.843 93.7303 419.764C92.5981 372.786 86.8995 270.811 86.8995 270.811H135.659Z" fill="#143B63"/>
<path d="M134.828 151.268C134.828 151.268 151.452 176.574 137.527 279.509C115.185 279.509 70.0865 279.509 59.2176 279.509C58.7081 268.156 68.1618 204.082 57.1797 150.571C57.1797 150.571 69.8978 148.029 81.9933 147.446C91.4658 146.994 105.184 146.693 113.506 147.446C124.488 148.425 134.828 151.268 134.828 151.268Z" fill="#F13B61"/>
<path opacity="0.2" d="M143.075 203.913L126.658 176.762C126.658 176.762 132.828 215.248 142.282 232.608C142.924 221.744 143.15 212.216 143.075 203.913Z" fill="black"/>
<path d="M150.094 171.076C152.792 179.662 155.774 188.492 158.793 197.097C161.85 205.72 165.001 214.287 168.473 222.516L169.794 225.566C170.096 226.262 170.058 226.131 170.077 226.262C170.096 226.375 170.266 226.601 170.341 226.771C170.907 227.656 171.983 228.936 173.266 230.198C175.908 232.739 179.266 235.338 182.814 237.748C186.361 240.196 190.116 242.568 193.985 244.827C197.815 247.068 201.853 249.365 205.665 251.323L198.306 268.419C188.946 264.917 180.21 261.076 171.341 256.143C166.944 253.62 162.567 250.909 158.113 247.313C155.906 245.468 153.641 243.434 151.415 240.553C150.849 239.762 150.301 239.047 149.754 238.143C149.226 237.258 148.603 236.11 148.414 235.733L146.754 232.438C142.433 223.664 138.565 214.89 134.998 206.022C131.375 197.153 128.111 188.342 124.922 179.191L150.094 171.076Z" fill="#F13B61"/>
<path d="M116.336 157.501C111.487 169.815 140.98 219.39 140.98 219.39L160.17 201.089C160.17 201.089 155.981 185.499 150.396 166.764C144.886 148.312 120.959 145.733 116.336 157.501Z" fill="#F13B61"/>
</g>
<path d="M246.992 153.893H205.275C198.436 153.893 192.874 148.734 192.874 142.389V35.3842C192.874 29.0401 198.436 23.8801 205.275 23.8801H246.992C253.83 23.8801 259.393 29.0401 259.393 35.3842V142.389C259.393 148.734 253.83 153.893 246.992 153.893Z" fill="#122757"/>
<path d="M246.857 151.905H205.459C199.669 151.905 194.973 147.549 194.973 142.178V35.1726C194.973 29.8012 199.669 25.4448 205.459 25.4448H246.857C252.647 25.4448 257.343 29.8012 257.343 35.1726V142.178C257.297 147.549 252.601 151.905 246.857 151.905Z" fill="white"/>
<path d="M209.881 23.8801L210.154 26.3755C210.337 28.025 212.023 29.2515 214.029 29.2515H238.239C240.245 29.2515 241.932 27.9827 242.114 26.3755L242.388 23.8801H209.881Z" fill="#122757"/>
<path d="M248.92 59.7596H203.66C203.142 59.7596 202.655 59.17 202.56 58.4494C202.482 57.7288 202.828 57.1392 203.346 57.1392H248.606C249.124 57.1392 249.612 57.7288 249.706 58.4494C249.784 59.17 249.439 59.7596 248.92 59.7596Z" fill="#98A8B9"/>
<path d="M222.714 67.6207H203.658C203.141 67.6207 202.654 67.0311 202.56 66.3105C202.482 65.5898 202.827 65.0002 203.345 65.0002H222.4C222.917 65.0002 223.404 65.5898 223.498 66.3105C223.592 67.0311 223.231 67.6207 222.714 67.6207Z" fill="#98A8B9"/>
<path d="M217.438 67.6207H203.706C203.166 67.6207 202.659 67.0311 202.561 66.3105C202.479 65.5898 202.839 65.0002 203.379 65.0002H217.111C217.651 65.0002 218.158 65.5898 218.256 66.3105C218.354 67.0311 217.978 67.6207 217.438 67.6207Z" fill="#98A8B9"/>
<path d="M248.92 72.8619H203.66C203.142 72.8619 202.655 72.2723 202.56 71.5517C202.482 70.8311 202.828 70.2415 203.346 70.2415H248.606C249.124 70.2415 249.612 70.8311 249.706 71.5517C249.784 72.2723 249.439 72.8619 248.92 72.8619Z" fill="#98A8B9"/>
<path d="M243.705 80.723H203.64C203.131 80.723 202.653 80.1334 202.56 79.4128C202.483 78.6921 202.823 78.1025 203.332 78.1025H243.381C243.89 78.1025 244.368 78.6921 244.461 79.4128C244.553 80.1334 244.214 80.723 243.705 80.723Z" fill="#98A8B9"/>
<path d="M230.591 85.9639H203.641C203.131 85.9639 202.653 85.3743 202.56 84.6537C202.483 83.9331 202.823 83.3435 203.332 83.3435H230.283C230.792 83.3435 231.27 83.9331 231.363 84.6537C231.44 85.3743 231.101 85.9639 230.591 85.9639Z" fill="#98A8B9"/>
<path d="M248.92 93.8253H203.66C203.142 93.8253 202.655 93.2357 202.56 92.5151C202.482 91.7944 202.828 91.2048 203.346 91.2048H248.606C249.124 91.2048 249.612 91.7944 249.706 92.5151C249.784 93.2357 249.439 93.8253 248.92 93.8253Z" fill="#98A8B9"/>
<path d="M248.92 99.066H203.66C203.142 99.066 202.655 98.4764 202.56 97.7558C202.482 97.0352 202.828 96.4456 203.346 96.4456H248.606C249.124 96.4456 249.612 97.0352 249.706 97.7558C249.784 98.4982 249.439 99.066 248.92 99.066Z" fill="#98A8B9"/>
<path d="M230.591 106.927H203.641C203.131 106.927 202.653 106.338 202.56 105.617C202.483 104.896 202.823 104.307 203.332 104.307H230.283C230.792 104.307 231.27 104.896 231.363 105.617C231.44 106.338 231.101 106.927 230.591 106.927Z" fill="#98A8B9"/>
<path d="M246.7 126.196C246.664 126.196 246.61 126.196 246.556 126.178C244.062 125.39 242.177 123.474 240.365 121.63C239.288 120.537 238.175 119.409 236.973 118.568C236.434 118.192 235.932 118.299 235.663 118.55C235.429 118.783 235.304 119.212 235.663 119.714C236.093 120.341 236.578 120.967 237.063 121.558C237.457 122.042 237.529 122.668 237.206 123.134C236.901 123.582 236.345 123.761 235.788 123.582C235.106 123.367 234.442 123.116 233.778 122.812C233.617 122.74 233.473 122.74 233.383 122.848C233.294 122.937 233.276 123.098 233.348 123.259L233.437 123.474C233.653 123.994 233.599 124.531 233.294 124.943C233.007 125.355 232.504 125.569 231.966 125.552C224.141 125.104 216.837 125.265 208.258 125.641C207.989 125.641 207.81 125.462 207.792 125.211C207.774 124.961 207.971 124.764 208.222 124.746C216.837 124.37 224.177 124.209 232.02 124.656C232.235 124.674 232.45 124.585 232.558 124.423C232.666 124.262 232.684 124.047 232.594 123.815L232.504 123.618C232.289 123.116 232.361 122.561 232.719 122.203C233.078 121.845 233.617 121.773 234.119 121.988C234.747 122.275 235.393 122.507 236.022 122.722C236.201 122.776 236.345 122.74 236.416 122.633C236.488 122.525 236.506 122.328 236.327 122.131C235.806 121.522 235.322 120.878 234.873 120.215C234.245 119.302 234.478 118.407 234.981 117.905C235.609 117.278 236.614 117.243 237.439 117.816C238.714 118.711 239.844 119.857 240.957 120.985C242.698 122.758 244.51 124.585 246.79 125.301C247.023 125.373 247.148 125.623 247.077 125.856C247.077 126.071 246.897 126.196 246.7 126.196Z" fill="#98A8B9"/>
</svg>
